<svg width="14" height="18" viewBox="0 0 14 18" fill="none" xmlns="http://www.w3.org/2000/svg">
<path d="M13.4837 4.73375L9.2575 0.5075C8.93375 0.18375 8.4875 0 8.02375 0H1.75C0.7875 0 0 0.7875 0 1.75V15.75C0 16.7125 0.7875 17.5 1.75 17.5H12.25C13.2125 17.5 14 16.7125 14 15.75V5.97625C14 5.5125 13.8162 5.06625 13.4837 4.73375ZM10.2725 14.6475C9.93125 14.9887 9.38 14.9887 9.03875 14.6475L8.00625 13.615C6.8425 14.2362 5.3725 14.0787 4.3925 13.0987C3.0625 11.7687 3.21125 9.52875 4.83 8.4C5.845 7.69125 7.2625 7.69125 8.28625 8.4C9.6425 9.345 9.94875 11.06 9.24 12.3812L10.2725 13.4137C10.6137 13.755 10.6137 14.3062 10.2725 14.6475ZM8.75 6.125C8.26875 6.125 7.875 5.73125 7.875 5.25V1.3125L12.6875 6.125H8.75Z" fill="white"/>
<path d="M6.5625 12.25C7.28737 12.25 7.875 11.6624 7.875 10.9375C7.875 10.2126 7.28737 9.625 6.5625 9.625C5.83763 9.625 5.25 10.2126 5.25 10.9375C5.25 11.6624 5.83763 12.25 6.5625 12.25Z" fill="white"/>
</svg>
