<svg width="15" height="17" viewBox="0 0 15 17" fill="none" xmlns="http://www.w3.org/2000/svg">
<g clip-path="url(#clip0_1019_146)">
<path d="M1.75152 0C4.97129 0 8.19107 0 11.4108 0C11.4192 0.00657097 11.4266 0.0166465 11.4363 0.0197129C12.0785 0.211585 12.3636 0.590949 12.3636 1.25549C12.3636 2.92014 12.3636 4.58479 12.3636 6.24943C12.3636 6.31164 12.3636 6.3734 12.3636 6.42378C12.0587 6.3826 11.7784 6.32434 11.4967 6.31251C11.2142 6.30068 10.9246 6.30726 10.6464 6.35457C8.11003 6.78518 6.5089 9.68693 7.84412 12.1252C7.8761 12.1839 7.89406 12.2584 7.8945 12.3258C7.898 12.972 7.89625 13.6181 7.89581 14.2643C7.89581 14.323 7.89581 14.3817 7.89581 14.4561C7.83843 14.4561 7.79593 14.4561 7.75344 14.4561C5.82596 14.4561 3.89847 14.4561 1.97099 14.4557C1.90572 14.4557 1.83913 14.4531 1.77473 14.4421C1.17853 14.3414 0.799603 13.8783 0.799603 13.248C0.799165 9.32727 0.799165 5.40659 0.799165 1.48592C0.799165 1.36019 0.793908 1.23359 0.801355 1.1083C0.826763 0.661916 1.03528 0.328987 1.43392 0.123972C1.53468 0.0722807 1.64551 0.04074 1.75152 0ZM6.19393 3.67974C6.92769 3.67974 7.66101 3.6815 8.39477 3.67887C8.71412 3.67755 8.94761 3.44976 8.94585 3.15056C8.9441 2.85268 8.7093 2.63145 8.3882 2.62883C8.142 2.62664 7.89537 2.62839 7.64918 2.62839C6.43399 2.62839 5.21836 2.6297 4.00317 2.62751C3.76749 2.62707 3.58613 2.71381 3.48056 2.92715C3.30577 3.28198 3.56467 3.67624 3.97645 3.67843C4.7159 3.68237 5.45492 3.67974 6.19393 3.67974ZM6.20357 4.7311C5.47551 4.7311 4.74744 4.73066 4.01938 4.7311C3.66761 4.73154 3.43062 4.94093 3.42799 5.25152C3.42536 5.56167 3.66455 5.78158 4.01062 5.78202C5.46149 5.78289 6.91192 5.78289 8.36279 5.78202C8.70974 5.78202 8.94848 5.56298 8.94629 5.25283C8.9441 4.94356 8.70536 4.73154 8.35534 4.73154C7.63779 4.73066 6.92068 4.7311 6.20357 4.7311ZM5.26786 6.83381C4.84075 6.83381 4.41407 6.8325 3.98696 6.83425C3.66367 6.83556 3.43062 7.05459 3.42799 7.35335C3.42492 7.65825 3.66148 7.88341 3.99353 7.88429C4.84206 7.88604 5.6906 7.88604 6.53913 7.88429C6.87162 7.88385 7.10861 7.66 7.10686 7.35598C7.10511 7.05197 6.86811 6.83512 6.53299 6.83381C6.1107 6.83293 5.68928 6.83381 5.26786 6.83381Z" fill="white"/>
<path d="M9.34075 16.8217C9.03323 16.6907 8.93554 16.4555 8.94168 16.1282C8.95657 15.2911 8.94649 14.4539 8.94649 13.6168C8.94649 13.5577 8.94649 13.4985 8.94649 13.407C9.66536 13.9213 10.4425 14.1911 11.3033 14.192C12.1667 14.1929 12.9469 13.93 13.6776 13.4048C13.6776 13.4876 13.6776 13.5437 13.6776 13.5997C13.6776 14.4426 13.668 15.2854 13.6824 16.1278C13.6881 16.4546 13.5904 16.6903 13.2833 16.8213C13.1957 16.8213 13.1081 16.8213 13.0205 16.8213C12.4953 16.5221 11.9683 16.2259 11.4461 15.9219C11.348 15.8645 11.2766 15.8663 11.1789 15.9232C10.6563 16.2268 10.1293 16.5229 9.60359 16.8213C9.51598 16.8217 9.42837 16.8217 9.34075 16.8217Z" fill="white"/>
<path d="M14.2029 10.2463C14.2042 11.8408 12.9054 13.1419 11.3117 13.1419C9.71757 13.1419 8.41915 11.8413 8.4209 10.2463C8.42265 8.65873 9.7167 7.3625 11.3038 7.35987C12.9006 7.3568 14.2016 8.65216 14.2029 10.2463ZM10.9034 10.3391C10.772 10.2533 10.6524 10.1674 10.5258 10.0938C10.277 9.95015 9.97165 10.0259 9.81964 10.2625C9.67026 10.4947 9.71801 10.7996 9.94756 10.9638C10.2183 11.1575 10.4965 11.3423 10.779 11.5184C11.0151 11.6656 11.3091 11.6135 11.4659 11.3852C11.8369 10.8451 12.2001 10.2988 12.5549 9.74776C12.6929 9.53355 12.6381 9.27815 12.4524 9.10731C12.2737 8.94347 12.0205 8.91456 11.819 9.05562C11.7327 9.11607 11.6635 9.20806 11.6026 9.29655C11.3678 9.63912 11.14 9.98563 10.9034 10.3391Z" fill="white"/>
</g>
<defs>
<clipPath id="clip0_1019_146">
<rect width="13.4061" height="16.8217" fill="white" transform="translate(0.796875)"/>
</clipPath>
</defs>
</svg>
