<svg width="14" height="19" viewBox="0 0 14 19" fill="none" xmlns="http://www.w3.org/2000/svg">
<path d="M7.00114 19C8.01627 19 8.84683 18.1231 8.84683 17.0513H5.15545C5.15545 18.1231 5.97678 19 7.00114 19ZM12.5382 13.1538V8.28205C12.5382 5.29077 11.0247 2.78667 8.3854 2.1241V1.46154C8.3854 0.652821 7.7671 0 7.00114 0C6.23518 0 5.61687 0.652821 5.61687 1.46154V2.1241C2.96831 2.78667 1.46407 5.28103 1.46407 8.28205V13.1538L0.273602 14.4108C-0.30779 15.0246 0.0982618 16.0769 0.919593 16.0769H13.0735C13.8948 16.0769 14.3101 15.0246 13.7287 14.4108L12.5382 13.1538Z" fill="white"/>
</svg>
