<svg width="15" height="12" viewBox="0 0 15 12" fill="none" xmlns="http://www.w3.org/2000/svg">
<path d="M0.791667 7.125H2.375C2.81042 7.125 3.16667 6.76875 3.16667 6.33333V4.75C3.16667 4.31458 2.81042 3.95833 2.375 3.95833H0.791667C0.35625 3.95833 0 4.31458 0 4.75V6.33333C0 6.76875 0.35625 7.125 0.791667 7.125ZM0.791667 11.0833H2.375C2.81042 11.0833 3.16667 10.7271 3.16667 10.2917V8.70833C3.16667 8.27292 2.81042 7.91667 2.375 7.91667H0.791667C0.35625 7.91667 0 8.27292 0 8.70833V10.2917C0 10.7271 0.35625 11.0833 0.791667 11.0833ZM0.791667 3.16667H2.375C2.81042 3.16667 3.16667 2.81042 3.16667 2.375V0.791667C3.16667 0.35625 2.81042 0 2.375 0H0.791667C0.35625 0 0 0.35625 0 0.791667V2.375C0 2.81042 0.35625 3.16667 0.791667 3.16667ZM4.75 7.125H13.4583C13.8938 7.125 14.25 6.76875 14.25 6.33333V4.75C14.25 4.31458 13.8938 3.95833 13.4583 3.95833H4.75C4.31458 3.95833 3.95833 4.31458 3.95833 4.75V6.33333C3.95833 6.76875 4.31458 7.125 4.75 7.125ZM4.75 11.0833H13.4583C13.8938 11.0833 14.25 10.7271 14.25 10.2917V8.70833C14.25 8.27292 13.8938 7.91667 13.4583 7.91667H4.75C4.31458 7.91667 3.95833 8.27292 3.95833 8.70833V10.2917C3.95833 10.7271 4.31458 11.0833 4.75 11.0833ZM3.95833 0.791667V2.375C3.95833 2.81042 4.31458 3.16667 4.75 3.16667H13.4583C13.8938 3.16667 14.25 2.81042 14.25 2.375V0.791667C14.25 0.35625 13.8938 0 13.4583 0H4.75C4.31458 0 3.95833 0.35625 3.95833 0.791667Z" fill="white"/>
</svg>
