<svg width="14" height="16" viewBox="0 0 14 16" fill="none" xmlns="http://www.w3.org/2000/svg">
<path d="M0.925556 2.40779C0.365556 2.64252 0 3.17066 0 3.75014V7.19771C0 11.2688 2.98667 15.0758 7 16C11.0133 15.0758 14 11.2688 14 7.19771V3.75014C14 3.17066 13.6344 2.64252 13.0744 2.40779L7.63 0.126533C7.22556 -0.0421777 6.76667 -0.0421777 6.37 0.126533L0.925556 2.40779ZM7 4.26361C7.42778 4.26361 7.77778 4.5937 7.77778 4.99713C7.77778 5.40057 7.42778 5.73066 7 5.73066C6.57222 5.73066 6.22222 5.40057 6.22222 4.99713C6.22222 4.5937 6.57222 4.26361 7 4.26361ZM7 7.19771C7.42778 7.19771 7.77778 7.52779 7.77778 7.93123V10.8653C7.77778 11.2688 7.42778 11.5989 7 11.5989C6.57222 11.5989 6.22222 11.2688 6.22222 10.8653V7.93123C6.22222 7.52779 6.57222 7.19771 7 7.19771Z" fill="white"/>
</svg>
